<?xml version="1.0" encoding="UTF-8" standalone="no"?>
<svg
   xmlns:dc="http://purl.org/dc/elements/1.1/"
   xmlns:cc="http://creativecommons.org/ns#"
   xmlns:rdf="http://www.w3.org/1999/02/22-rdf-syntax-ns#"
   xmlns:svg="http://www.w3.org/2000/svg"
   xmlns="http://www.w3.org/2000/svg"
   width="50mm"
   height="50mm"
   viewBox="0 0 50.000001 49.999998"
   version="1.1"
   id="svg1181">
  <defs
     id="defs1175" />
  <metadata
     id="metadata1178">
    <rdf:RDF>
      <cc:Work
         rdf:about="">
        <dc:format>image/svg+xml</dc:format>
        <dc:type
           rdf:resource="http://purl.org/dc/dcmitype/StillImage" />
        <dc:title></dc:title>
      </cc:Work>
    </rdf:RDF>
  </metadata>
  <g
     id="icon"
     transform="translate(-25.03927,-23.526662)">
    <g
       class="com.sun.star.drawing.ClosedBezierShape"
       id="g8837"
       transform="matrix(0.03890691,0,0,0.03890691,-23.703714,-533.02316)">
      <g
         id="id1176">
        <rect
           class="BoundingBox"
           stroke="none"
           fill="none"
           x="1400"
           y="14709"
           width="838"
           height="822"
           id="rect8832" />
        <path
           stroke="none"
           d="m 2209,15175 c -19,-5 -40,6 -45,26 -43,150 -183,255 -339,255 -194,0 -352,-157 -352,-352 0,-142 84,-269 215,-324 19,-8 27,-30 19,-48 -7,-19 -29,-28 -48,-20 -158,67 -259,221 -259,392 0,235 190,426 425,426 189,0 358,-127 410,-309 5,-20 -6,-40 -26,-46 z"
           id="path8834" />
      </g>
    </g>
    <g
       class="com.sun.star.drawing.ClosedBezierShape"
       id="g8844"
       transform="matrix(0.03890691,0,0,0.03890691,-23.703714,-533.02316)">
      <g
         id="id1177">
        <rect
           class="BoundingBox"
           stroke="none"
           fill="none"
           x="1753"
           y="14629"
           width="645"
           height="647"
           id="rect8839" />
        <path
           stroke="none"
           d="m 2392,15222 -119,-238 c -1,0 -1,-1 -1,-1 -1,-2 -2,-3 -3,-4 0,-1 -1,-2 -2,-3 -1,0 -1,-1 -2,-2 -1,-1 -2,-2 -3,-2 -1,-1 -2,-2 -3,-2 -1,-1 -2,-2 -3,-2 -1,-1 -2,-1 -3,-2 -1,0 -3,0 -4,-1 -1,0 -2,0 -3,0 -3,-1 -4,-1 -5,-1 -1,0 -1,0 -2,0 h -264 v -298 -1 c 0,-1 0,-3 -1,-4 0,-1 0,-2 0,-3 0,-1 -1,-3 -1,-4 -1,-1 -1,-2 -1,-3 -1,-1 -2,-2 -2,-3 -1,-1 -1,-2 -2,-3 -1,-1 -1,-2 -2,-3 -1,-1 -2,-2 -3,-3 h -1 c 0,-1 -1,-1 -1,-2 -1,-1 -2,-1 -4,-2 -1,-1 -2,-1 -3,-2 -1,0 -2,-1 -3,-1 -1,-1 -2,-1 -4,-1 -1,-1 -2,-1 -3,-1 -1,0 -2,0 -4,0 -1,0 -1,-1 -2,-1 h -1 c -1,0 -3,1 -4,1 -1,0 -2,0 -3,0 -2,1 -3,1 -4,1 -1,1 -2,1 -3,2 -1,0 -2,1 -3,1 -1,1 -2,2 -3,2 -1,1 -2,2 -3,2 -1,1 -2,2 -3,3 0,0 0,1 -1,1 l -147,167 c -13,15 -12,39 3,52 7,6 16,9 25,9 10,0 20,-4 27,-12 l 83,-94 v 237 c 0,20 17,37 37,37 h 278 l 111,217 c 6,13 19,20 33,20 5,0 11,-1 16,-4 18,-9 26,-31 16,-49 z"
           id="path8841" />
      </g>
    </g>
    <g
       class="com.sun.star.drawing.ClosedBezierShape"
       id="g8851"
       transform="matrix(0.03890691,0,0,0.03890691,-23.703714,-533.02316)">
      <g
         id="id1178">
        <rect
           class="BoundingBox"
           stroke="none"
           fill="none"
           x="1806"
           y="14349"
           width="266"
           height="266"
           id="rect8846" />
        <path
           stroke="none"
           d="m 1938,14614 c 74,0 133,-60 133,-132 0,-73 -59,-133 -133,-133 -73,0 -132,60 -132,133 0,72 59,132 132,132 z m 0,-191 c 32,0 59,26 59,59 0,32 -27,58 -59,58 -32,0 -58,-26 -58,-58 0,-33 26,-59 58,-59 z"
           id="path8848" />
      </g>
    </g>
  </g>
</svg>
