<?xml version="1.0" encoding="UTF-8" standalone="no"?>
<svg
   xmlns:dc="http://purl.org/dc/elements/1.1/"
   xmlns:cc="http://creativecommons.org/ns#"
   xmlns:rdf="http://www.w3.org/1999/02/22-rdf-syntax-ns#"
   xmlns:svg="http://www.w3.org/2000/svg"
   xmlns="http://www.w3.org/2000/svg"
   width="50mm"
   height="50mm"
   viewBox="0 0 50.000001 49.999998"
   version="1.1"
   id="svg1181">
  <defs
     id="defs1175" />
  <metadata
     id="metadata1178">
    <rdf:RDF>
      <cc:Work
         rdf:about="">
        <dc:format>image/svg+xml</dc:format>
        <dc:type
           rdf:resource="http://purl.org/dc/dcmitype/StillImage" />
        <dc:title></dc:title>
      </cc:Work>
    </rdf:RDF>
  </metadata>
  <g
     id="icon"
     transform="translate(-25.03927,-23.526662)">
    <g
       class="com.sun.star.drawing.ClosedBezierShape"
       id="g9131"
       transform="matrix(0.04170421,0,0,0.04170421,-31.825855,-805.15681)">
      <g
         id="id1198">
        <rect
           class="BoundingBox"
           stroke="none"
           fill="none"
           x="1614"
           y="20073"
           width="714"
           height="734"
           id="rect9126" />
        <path
           stroke="none"
           d="m 2090,20772 -24,19 13,15 23,-19 c 23,-19 44,-40 63,-63 16,6 33,8 50,6 38,-5 72,-30 88,-65 34,-75 32,-161 -6,-233 l -23,-45 c -2,-3 -5,-5 -9,-5 -4,0 -7,2 -8,6 l -12,25 c -23,48 -59,89 -103,119 -3,2 -6,4 -8,6 v -276 l 41,41 c 4,4 10,4 14,0 l 77,-77 c 4,-4 4,-9 1,-13 l -34,-40 c -42,-51 -100,-87 -165,-100 0,0 -1,0 -2,0 h -193 c 0,0 -1,0 -2,0 -64,13 -123,49 -165,100 l -34,40 c -3,4 -3,9 0,13 l 78,77 c 4,4 10,4 13,0 l 43,-41 v 111 h 19 v -135 c 0,-5 -4,-9 -9,-9 -3,0 -6,0 -7,2 l -53,51 -64,-64 28,-33 c 37,-45 89,-76 145,-91 l 3,12 c 11,56 65,93 122,82 41,-8 73,-41 81,-82 l 2,-12 c 57,15 108,46 145,91 l 28,33 -64,64 -51,-51 c -4,-4 -10,-4 -14,0 -2,2 -3,4 -3,7 v 299 h -100 c 0,-1 -1,-1 -1,-2 l -18,-47 c -2,-4 -6,-7 -11,-6 l -28,4 c -17,2 -33,-10 -36,-27 0,-4 0,-7 0,-10 l 6,-29 c 0,-4 -2,-8 -6,-10 l -46,-21 c -4,-1 -9,0 -12,3 l -18,23 c -10,14 -30,17 -44,6 -3,-2 -5,-4 -7,-7 l -16,-24 c -4,-3 -9,-5 -13,-3 l -47,18 c -4,2 -7,6 -6,10 l 4,29 c 2,17 -10,33 -27,36 -4,0 -7,0 -10,-1 l -29,-5 c -4,0 -8,2 -10,6 l -21,46 c -1,4 0,9 3,12 l 23,17 c 14,11 17,31 6,45 -2,3 -4,5 -7,7 l -24,16 c -3,3 -5,7 -3,11 l 18,48 c 2,4 6,6 10,6 l 29,-4 c 17,-3 33,10 35,27 1,3 1,7 0,10 l -5,28 c -1,5 2,9 6,11 l 46,21 c 4,1 9,0 12,-3 l 18,-23 c 11,-14 31,-17 45,-6 2,2 5,4 6,7 l 17,24 c 3,3 7,5 11,3 l 47,-18 c 5,-2 7,-6 7,-11 l -4,-28 c -3,-17 10,-33 27,-36 3,0 7,0 10,1 l 28,5 c 5,0 9,-2 11,-6 l 20,-46 c 2,-4 1,-9 -3,-12 l -22,-17 c -14,-11 -17,-31 -6,-45 1,-3 4,-5 7,-7 l 10,-7 h 119 c -36,47 -27,115 20,152 4,3 8,5 11,7 -16,21 -36,40 -56,57 z m -275,-129 c -32,0 -59,-26 -59,-58 0,-32 27,-57 59,-57 32,0 58,25 58,57 0,32 -26,58 -58,58 z m 470,14 c -13,29 -41,49 -73,54 -11,1 -23,0 -34,-3 20,-28 38,-57 53,-88 22,7 48,4 68,-8 l 2,-1 c -4,15 -9,31 -16,46 z m -143,31 c -37,-33 -39,-89 -6,-126 5,-5 10,-10 16,-14 47,-31 86,-75 110,-127 l 4,-7 14,27 c 23,44 32,95 25,144 l -16,10 c -15,9 -34,11 -51,7 11,-28 20,-56 26,-85 l -19,-4 c -9,42 -23,82 -43,120 -19,-11 -32,-31 -34,-53 l -1,-2 -19,2 v 2 c 3,29 20,54 45,68 -10,17 -22,34 -34,50 -6,-3 -12,-7 -17,-12 z"
           id="path9128" />
      </g>
    </g>
    <g
       class="com.sun.star.drawing.ClosedBezierShape"
       id="g9145"
       transform="matrix(0.04170421,0,0,0.04170421,-31.825855,-805.15681)">
      <g
         id="id1200">
        <rect
           class="BoundingBox"
           stroke="none"
           fill="none"
           x="1400"
           y="19996"
           width="312"
           height="727"
           id="rect9140" />
        <path
           stroke="none"
           d="m 1497,20469 c 0,-122 47,-240 132,-328 l 25,26 c 4,4 10,4 14,0 1,-1 2,-3 2,-5 l 40,-154 c 1,-5 -2,-11 -7,-12 -2,0 -3,0 -5,0 l -155,39 c -5,1 -8,6 -7,11 0,2 1,4 3,5 l 22,22 c -168,173 -209,432 -102,649 l 96,-25 c -38,-71 -58,-149 -58,-228 z"
           id="path9142" />
      </g>
    </g>
    <g
       class="com.sun.star.drawing.ClosedBezierShape"
       id="g9152"
       transform="matrix(0.04170421,0,0,0.04170421,-31.825855,-805.15681)">
      <g
         id="id1201">
        <rect
           class="BoundingBox"
           stroke="none"
           fill="none"
           x="1496"
           y="20729"
           width="728"
           height="311"
           id="rect9147" />
        <path
           stroke="none"
           d="m 1971,20942 c -122,1 -241,-46 -329,-131 l 26,-27 c 4,-4 4,-10 0,-14 -2,-1 -3,-2 -5,-2 l -154,-39 c -5,-1 -11,2 -12,7 -1,2 -1,3 0,5 l 39,155 c 1,5 6,8 11,7 2,0 3,-1 5,-2 l 22,-22 c 173,167 433,207 649,101 l -25,-96 c -70,39 -148,58 -227,58 z"
           id="path9149" />
      </g>
    </g>
    <g
       class="com.sun.star.drawing.ClosedBezierShape"
       id="g9159"
       transform="matrix(0.04170421,0,0,0.04170421,-31.825855,-805.15681)">
      <g
         id="id1202">
        <rect
           class="BoundingBox"
           stroke="none"
           fill="none"
           x="2229"
           y="20216"
           width="312"
           height="728"
           id="rect9154" />
        <path
           stroke="none"
           d="m 2379,20865 c 167,-173 208,-433 101,-649 l -96,26 c 99,181 69,405 -73,555 l -27,-26 c -4,-4 -10,-4 -14,0 -1,2 -2,3 -2,5 l -39,154 c -1,5 2,11 7,12 2,1 3,1 5,0 l 155,-38 c 5,-2 8,-7 7,-12 0,-2 -1,-3 -2,-5 z"
           id="path9156" />
      </g>
    </g>
    <g
       class="com.sun.star.drawing.ClosedBezierShape"
       id="g9166"
       transform="matrix(0.04170421,0,0,0.04170421,-31.825855,-805.15681)">
      <g
         id="id1203">
        <rect
           class="BoundingBox"
           stroke="none"
           fill="none"
           x="1713"
           y="19900"
           width="731"
           height="311"
           id="rect9161" />
        <path
           stroke="none"
           d="m 1970,19997 c 122,0 239,47 327,132 l -26,25 c -4,4 -4,10 0,14 2,1 3,2 5,3 l 154,39 c 5,1 11,-2 12,-7 1,-1 1,-3 0,-4 l -39,-156 c -1,-5 -6,-8 -11,-7 -2,1 -3,1 -5,3 l -22,22 c -174,-168 -434,-209 -652,-100 l 29,94 c 69,-38 148,-58 228,-58 z"
           id="path9163" />
      </g>
    </g>
  </g>
</svg>
