<?xml version="1.0" encoding="UTF-8" standalone="no"?>
<svg
   xmlns:dc="http://purl.org/dc/elements/1.1/"
   xmlns:cc="http://creativecommons.org/ns#"
   xmlns:rdf="http://www.w3.org/1999/02/22-rdf-syntax-ns#"
   xmlns:svg="http://www.w3.org/2000/svg"
   xmlns="http://www.w3.org/2000/svg"
   width="50mm"
   height="50mm"
   viewBox="0 0 50.000001 49.999998"
   version="1.1"
   id="svg1181">
  <defs
     id="defs1175" />
  <metadata
     id="metadata1178">
    <rdf:RDF>
      <cc:Work
         rdf:about="">
        <dc:format>image/svg+xml</dc:format>
        <dc:type
           rdf:resource="http://purl.org/dc/dcmitype/StillImage" />
        <dc:title></dc:title>
      </cc:Work>
    </rdf:RDF>
  </metadata>
  <g
     id="icon"
     transform="translate(-25.03927,-23.526662)">
    <path
       style="fill-opacity:1;stroke:none;stroke-width:0.0350924"
       d="m 46.330007,66.388314 c -0.02405,-0.0077 -0.02405,-0.05507 0,-0.05507 0,-0.02357 0.117833,-0.535777 0.239032,-1.148496 0.124085,-0.612878 0.242398,-1.194754 0.262117,-1.295142 0.02405,-0.103068 0.231817,-1.13819 0.465559,-2.302105 0.234703,-1.166435 0.490134,-2.433332 0.568,-2.820101 0.07888,-0.383941 0.224122,-1.104672 0.322717,-1.60166 0.100037,-0.494079 0.199113,-0.981073 0.221717,-1.081467 0.02405,-0.103067 0.132261,-0.643557 0.242398,-1.20506 0.110138,-0.56095 0.357345,-1.7871 0.547561,-2.723878 0.191417,-0.937254 0.339068,-1.707166 0.331854,-1.71236 -0.02405,-0.0077 -1.262009,0.07868 -3.890876,0.257259 -3.853217,0.27063 -5.694145,0.394186 -5.708381,0.383942 0,-0.0063 0.182761,-0.306028 0.427083,-0.661656 0.244803,-0.35797 0.711227,-1.048026 1.039138,-1.532192 0.328007,-0.486999 0.764756,-1.130398 0.969833,-1.431645 0.206327,-0.301315 0.678186,-1.001687 1.050873,-1.555321 0.372254,-0.553871 0.885715,-1.315838 1.140955,-1.691747 0.254903,-0.376054 0.70964,-1.050623 1.009608,-1.493486 0.760812,-1.127883 1.483486,-2.193848 1.969341,-2.911279 0.226527,-0.335173 0.677368,-1.001691 0.999604,-1.478066 0.322716,-0.479122 1.072515,-1.588762 1.666583,-2.469365 0.59402,-0.880689 1.266675,-1.874589 1.494501,-2.209349 0.228931,-0.337529 0.764708,-1.130398 1.192464,-1.769001 0.428045,-0.63884 0.79573,-1.171625 0.817228,-1.189642 0.02405,-0.02357 0.03367,0.0016 0.02405,0.05507 -0.02405,0.07868 -0.221237,1.06345 -1.540527,7.59055 -0.374659,1.851374 -1.083001,5.351065 -1.515181,7.482366 -0.08753,0.427227 -0.152461,0.780455 -0.143804,0.787929 0,0.0063 0.383797,-0.02357 0.836706,-0.05507 0.452573,-0.05507 2.350109,-0.180163 4.216623,-0.303671 3.524922,-0.257259 4.125531,-0.295832 4.413475,-0.321803 0.09523,-0.0077 0.173141,-0.0063 0.173141,0.004 0,0.0077 -0.163041,0.25726 -0.358788,0.540495 -0.409768,0.597141 -1.063089,1.562954 -2.065627,3.052111 -0.383316,0.568818 -0.929,1.380193 -1.212087,1.799845 -0.283279,0.420109 -0.773365,1.145899 -1.090263,1.614564 -1.528792,2.265991 -2.332409,3.456656 -3.272375,4.846921 -0.261155,0.383941 -0.787939,1.169027 -1.171351,1.738081 -0.383797,0.568818 -0.874509,1.297821 -1.090984,1.617085 -0.216427,0.319398 -0.961994,1.421415 -1.65658,2.453945 -1.799807,2.672348 -1.888638,2.801844 -1.912157,2.784068 z"
       id="path160049" />
    <path
       id="path160051"
       style="fill-opacity:1;fill-rule:nonzero;stroke:none;stroke-width:1.16365"
       d="m 75.046642,48.532825 c 0,-13.782097 -11.212311,-25.006163 -25.000872,-25.006163 -13.788802,0 -25.0065,11.212734 -25.0065,25.006163 0,13.782574 11.217457,25.007976 25.0065,25.007976 13.787503,0 25.000872,-11.21195 25.000872,-25.007976 m -4.672898,0 c 0,11.212263 -9.115855,20.333116 -20.32783,20.333116 -11.210676,0 -20.333265,-9.11676 -20.333265,-20.333116 0,-11.212499 9.122204,-20.33288 20.333265,-20.33288 11.210917,0 20.32783,9.117549 20.32783,20.33288" />
  </g>
</svg>
