<?xml version="1.0" encoding="UTF-8" standalone="no"?>
<svg
   xmlns:dc="http://purl.org/dc/elements/1.1/"
   xmlns:cc="http://creativecommons.org/ns#"
   xmlns:rdf="http://www.w3.org/1999/02/22-rdf-syntax-ns#"
   xmlns:svg="http://www.w3.org/2000/svg"
   xmlns="http://www.w3.org/2000/svg"
   width="50mm"
   height="50mm"
   viewBox="0 0 50.000001 49.999998"
   version="1.1"
   id="svg1181">
  <defs
     id="defs1175" />
  <metadata
     id="metadata1178">
    <rdf:RDF>
      <cc:Work
         rdf:about="">
        <dc:format>image/svg+xml</dc:format>
        <dc:type
           rdf:resource="http://purl.org/dc/dcmitype/StillImage" />
        <dc:title></dc:title>
      </cc:Work>
    </rdf:RDF>
  </metadata>
  <g
     id="icon"
     transform="translate(-25.03927,-23.526662)">
    <path
       id="path98"
       style="fill-opacity:1;fill-rule:nonzero;stroke:none;stroke-width:1.12695"
       d="m 70.180738,34.863726 c 0,-6.012301 -8.809244,-10.886362 -19.677787,-10.886362 -10.869391,0 -19.67859,4.874061 -19.67859,10.886362 0,6.012256 8.809421,10.885201 19.67859,10.885201 10.868543,0 19.677787,-4.872945 19.677787,-10.885201 M 30.96169,42.824482 c 1.138284,5.412745 9.449438,9.61517 19.541261,9.61517 10.141708,0 18.487787,-4.244092 19.559483,-9.695201 0.03572,-0.424712 -0.105847,-0.824907 -0.473392,-0.943255 -0.393004,-0.127281 -0.677218,0.06565 -0.964558,0.404616 0,10e-4 0,0 0,10e-4 -2.988756,3.901509 -9.973342,6.641108 -18.118094,6.641108 -8.187225,0 -15.199142,-2.767779 -18.163066,-6.700862 -0.267958,-0.298774 -0.540604,-0.464237 -0.906992,-0.346113 -0.392112,0.126387 -0.53404,0.569098 -0.471204,1.023286 m 0,6.751597 c 1.13833,5.411584 9.449483,9.615126 19.541351,9.615126 10.141485,0 18.487741,-4.245209 19.559483,-9.696273 0.03572,-0.424713 -0.105847,-0.824953 -0.473392,-0.943256 -0.393004,-0.12728 -0.677263,0.06655 -0.964781,0.404616 0,9.83e-4 0,0 0,0.0021 -2.988622,3.901553 -9.97352,6.640037 -18.117961,6.640037 -8.187358,0 -15.199319,-2.767825 -18.16302,-6.700864 -0.267958,-0.298772 -0.540606,-0.464281 -0.907351,-0.346111 -0.392111,0.126386 -0.534039,0.570169 -0.471202,1.024402 m 0,6.750435 c 1.13815,5.412746 9.449438,9.61517 19.541351,9.61517 10.141483,0 18.487562,-4.244136 19.559393,-9.696317 0.03573,-0.423819 -0.105847,-0.823836 -0.473392,-0.943255 -0.393897,-0.126387 -0.677218,0.06655 -0.964692,0.405956 0,0 0,0 0,9.82e-4 -2.988622,3.90267 -9.973565,6.640036 -18.117916,6.640036 -8.187403,0 -15.19932,-2.766662 -18.163244,-6.699745 -0.267958,-0.298774 -0.540604,-0.465444 -0.907126,-0.347006 -0.392112,0.127727 -0.53404,0.570214 -0.471204,1.024357 m 0,6.75048 c 1.13824,5.412746 9.449528,9.615126 19.541485,9.615126 10.141306,0 18.487518,-4.242975 19.559259,-9.695156 0.03572,-0.424713 -0.105846,-0.824907 -0.473391,-0.943256 -0.393898,-0.127726 -0.677264,0.06565 -0.964737,0.405509 v 0 c -2.988801,3.902626 -9.973564,6.64111 -18.118139,6.64111 -8.187223,0 -15.19914,-2.766664 -18.163021,-6.700864 -0.267958,-0.297433 -0.540605,-0.464281 -0.907215,-0.346112 -0.392112,0.12728 -0.533996,0.569098 -0.471204,1.023286" />
  </g>
</svg>
