<?xml version="1.0" encoding="UTF-8" standalone="no"?>
<svg
   xmlns:dc="http://purl.org/dc/elements/1.1/"
   xmlns:cc="http://creativecommons.org/ns#"
   xmlns:rdf="http://www.w3.org/1999/02/22-rdf-syntax-ns#"
   xmlns:svg="http://www.w3.org/2000/svg"
   xmlns="http://www.w3.org/2000/svg"
   width="50mm"
   height="50mm"
   viewBox="0 0 50.000001 49.999998"
   version="1.1"
   id="svg1181">
  <defs
     id="defs1175" />
  <metadata
     id="metadata1178">
    <rdf:RDF>
      <cc:Work
         rdf:about="">
        <dc:format>image/svg+xml</dc:format>
        <dc:type
           rdf:resource="http://purl.org/dc/dcmitype/StillImage" />
        <dc:title></dc:title>
      </cc:Work>
    </rdf:RDF>
  </metadata>
  <g
     id="icon"
     transform="translate(-25.03927,-23.526662)">
    <g
       class="com.sun.star.drawing.ClosedBezierShape"
       id="g8471"
       transform="matrix(0.0387574,0,0,0.0387574,-25.594147,-427.52433)">
      <g
         id="id1150">
        <rect
           class="BoundingBox"
           stroke="none"
           fill="none"
           x="1857"
           y="11649"
           width="203"
           height="360"
           id="rect8466" />
        <path
           stroke="none"
           d="m 1948,11848 v 111 l -41,-50 -19,14 71,85 69,-85 -17,-14 -41,50 v -111 c 50,-5 89,-47 89,-98 0,-56 -45,-101 -100,-101 -56,0 -101,45 -101,101 0,51 39,93 90,98 z"
           id="path8468" />
      </g>
    </g>
    <g
       class="com.sun.star.drawing.ClosedBezierShape"
       id="g8478"
       transform="matrix(0.0387574,0,0,0.0387574,-25.594147,-427.52433)">
      <g
         id="id1151">
        <rect
           class="BoundingBox"
           stroke="none"
           fill="none"
           x="1400"
           y="11914"
           width="326"
           height="250"
           id="rect8473" />
        <path
           stroke="none"
           d="m 1666,12050 22,60 -95,-55 c 20,-46 3,-101 -41,-128 -48,-27 -110,-11 -138,38 -28,48 -11,109 37,137 45,25 101,13 131,-28 l 95,55 -63,11 3,22 108,-18 -38,-102 z"
           id="path8475" />
      </g>
    </g>
    <g
       class="com.sun.star.drawing.ClosedBezierShape"
       id="g8485"
       transform="matrix(0.0387574,0,0,0.0387574,-25.594147,-427.52433)">
      <g
         id="id1152">
        <rect
           class="BoundingBox"
           stroke="none"
           fill="none"
           x="1400"
           y="12396"
           width="326"
           height="250"
           id="rect8480" />
        <path
           stroke="none"
           d="m 1614,12418 63,12 -95,55 c -30,-40 -86,-53 -131,-28 -48,28 -65,89 -37,137 28,48 90,64 138,37 44,-26 61,-81 41,-127 l 95,-55 -22,60 21,8 38,-103 -108,-18 z"
           id="path8482" />
      </g>
    </g>
    <g
       class="com.sun.star.drawing.ClosedBezierShape"
       id="g8492"
       transform="matrix(0.0387574,0,0,0.0387574,-25.594147,-427.52433)">
      <g
         id="id1153">
        <rect
           class="BoundingBox"
           stroke="none"
           fill="none"
           x="1857"
           y="12550"
           width="203"
           height="360"
           id="rect8487" />
        <path
           stroke="none"
           d="m 1970,12710 v -112 l 41,50 17,-14 -69,-84 -71,84 19,14 41,-50 v 112 c -51,5 -90,47 -90,99 0,55 45,100 101,100 55,0 100,-45 100,-100 0,-52 -39,-94 -89,-99 z"
           id="path8489" />
      </g>
    </g>
    <g
       class="com.sun.star.drawing.ClosedBezierShape"
       id="g8499"
       transform="matrix(0.0387574,0,0,0.0387574,-25.594147,-427.52433)">
      <g
         id="id1154">
        <rect
           class="BoundingBox"
           stroke="none"
           fill="none"
           x="2193"
           y="12396"
           width="325"
           height="250"
           id="rect8494" />
        <path
           stroke="none"
           d="m 2467,12457 c -46,-25 -101,-12 -131,28 l -96,-55 64,-12 -4,-22 -107,18 38,103 21,-8 -23,-60 96,55 c -20,46 -4,101 41,127 48,27 110,11 137,-37 28,-48 12,-109 -36,-137 z"
           id="path8496" />
      </g>
    </g>
    <g
       class="com.sun.star.drawing.ClosedBezierShape"
       id="g8506"
       transform="matrix(0.0387574,0,0,0.0387574,-25.594147,-427.52433)">
      <g
         id="id1155">
        <rect
           class="BoundingBox"
           stroke="none"
           fill="none"
           x="2193"
           y="11914"
           width="325"
           height="250"
           id="rect8501" />
        <path
           stroke="none"
           d="m 2304,12140 -64,-11 96,-55 c 30,41 85,53 131,28 48,-28 64,-89 36,-137 -27,-49 -89,-65 -137,-38 -45,27 -62,82 -41,128 l -96,55 22,-60 -20,-8 -38,102 107,18 z"
           id="path8503" />
      </g>
    </g>
    <g
       class="com.sun.star.drawing.ClosedBezierShape"
       id="g8513"
       transform="matrix(0.0387574,0,0,0.0387574,-25.594147,-427.52433)">
      <g
         id="id1156">
        <rect
           class="BoundingBox"
           stroke="none"
           fill="none"
           x="1747"
           y="12067"
           width="424"
           height="425"
           id="rect8508" />
        <path
           stroke="none"
           d="m 2170,12279 c 0,116 -95,212 -211,212 -118,0 -212,-96 -212,-212 0,-117 94,-212 212,-212 116,0 211,95 211,212 z"
           id="path8510" />
      </g>
    </g>
  </g>
</svg>
