<?xml version="1.0" encoding="UTF-8" standalone="no"?>
<svg
   xmlns:dc="http://purl.org/dc/elements/1.1/"
   xmlns:cc="http://creativecommons.org/ns#"
   xmlns:rdf="http://www.w3.org/1999/02/22-rdf-syntax-ns#"
   xmlns:svg="http://www.w3.org/2000/svg"
   xmlns="http://www.w3.org/2000/svg"
   width="50mm"
   height="50mm"
   viewBox="0 0 50.000001 49.999998"
   version="1.1"
   id="svg1181">
  <defs
     id="defs1175" />
  <metadata
     id="metadata1178">
    <rdf:RDF>
      <cc:Work
         rdf:about="">
        <dc:format>image/svg+xml</dc:format>
        <dc:type
           rdf:resource="http://purl.org/dc/dcmitype/StillImage" />
        <dc:title></dc:title>
      </cc:Work>
    </rdf:RDF>
  </metadata>
  <g
     id="icon"
     transform="translate(-25.03927,-23.526662)">
    <path
       style="stroke:none;stroke-width:0.177407;stroke-linecap:round;stroke-linejoin:round;stroke-miterlimit:4;stroke-dasharray:none;stroke-opacity:1"
       d="m 43.940327,24.094814 v 11.80072 4.027278 l 4.413184,-2.547372 2.782771,1.60696 c -0.01694,0.180633 -0.02711,0.361031 -0.02711,0.545188 0,0.40668 0.04439,0.803463 0.113192,1.190588 l -2.8677,-1.65593 -6.699536,3.869216 -0.731074,-1.2664 1.556396,-0.89883 v -2.720991 l -7.301591,2.144828 v 9.077289 h -3.935777 v 1.461978 H 68.505325 V 49.267358 H 58.470916 v -3.048537 c 3.406619,-0.32331 6.085721,-3.202431 6.085721,-6.691233 0,-3.704206 -3.019968,-6.723022 -6.724072,-6.723022 -1.822364,0 -3.476296,0.732871 -4.688913,1.916647 V 24.09478 Z m 1.605469,2.115512 h 2.096059 v 2.566148 h -2.096059 z m 3.531909,0 h 2.097382 v 2.566148 h -2.097382 z m -3.531909,4.028906 h 2.096059 v 2.566147 h -2.096059 z m 3.531909,0 h 2.097382 v 2.566147 h -2.097382 z m 8.761096,4.142201 c 2.851806,0 5.147036,2.294281 5.147036,5.146155 0,2.63535 -1.961956,4.791091 -4.509871,5.103793 v -4.093296 h -1.447101 v 4.067201 c -2.463393,-0.38682 -4.336253,-2.502129 -4.336253,-5.077698 0,-2.851874 2.294417,-5.146155 5.146189,-5.146155 z m -12.293005,0.189783 h 2.096059 v 2.566114 h -2.096059 z m 3.531909,0 h 2.097382 v 2.566114 h -2.097382 z m -11.24079,6.634162 h 2.098399 v 2.566148 h -2.098399 z m 7.708881,2.49691 h 2.096059 v 2.566148 h -2.096059 z m 3.531909,0 h 2.097382 v 2.566148 h -2.097382 z m -5.129889,0.171822 v 2.563741 h -1.461131 v -1.720322 z m 9.195497,0.459616 c 1.030052,1.005481 2.379855,1.68206 3.879689,1.863711 v 3.069751 h -3.879689 z m -19.357196,7.370862 v 6.039292 l 0.993788,0.02372 c 0.552712,0.01356 3.146073,0.04541 5.762445,0.07252 2.616407,0.02711 5.318182,0.05152 6.00286,0.05558 l 1.244066,0.0034 v -3.097305 -3.09744 h -7.007357 z m 15.514788,0.36835 v 2.932057 2.931245 l 1.244913,0.0068 c 0.685662,0.003 2.166042,0.01694 3.29163,0.0305 1.12579,0.01356 2.324478,0.02711 2.66409,0.0305 l 0.617508,0.0068 v -2.96881 -2.968693 h -3.908969 z m 9.328955,0 v 2.968693 c 0,1.632818 0.01694,2.970251 0.02711,2.974453 0.01694,0.003 0.94797,0.01694 2.073218,0.0305 v 0 c 1.126062,0.01356 2.505857,0.02711 3.068431,0.0305 l 1.023375,0.0068 v -3.006208 -3.005362 h -3.097576 z m -24.843743,7.18101 v 3.796658 1.01209 c 0.01694,3.404958 0.01694,4.424537 0.04982,4.85033 0.01694,0.125732 0.03389,0.251464 0.05592,0.374044 0,0 0,7.8e-4 0,7.8e-4 0.151488,0.669259 0.453482,1.387488 0.821086,1.924813 0.265697,0.388379 0.852909,0.982538 1.252607,1.267959 0.720501,0.514483 1.690668,0.877648 2.55188,0.9559 v 0 c 0.08032,0.0068 2.308177,0.01695 4.950611,0.02033 l 4.802715,0.0068 V 69.370609 65.276533 H 44.712238 41.153454 V 62.3135 59.349654 l -1.244541,-0.02372 c -0.684644,-0.01356 -2.343626,-0.03423 -3.688786,-0.04711 z m 8.848193,0.0888 v 4.420876 h 3.569121 3.577864 v 0.01694 9.68192 h 3.666994 3.668792 v -6.988688 -6.988652 l -0.857653,7.46e-4 C 55.273535,59.486026 45.408507,59.38693 43.73919,59.360497 Z m 15.996363,0.173516 -0.01694,4.535797 v 9.376334 h -0.02372 v 0.04202 h 0.06304 l 0.76615,-0.02033 c 1.153276,-0.0305 1.685619,-0.145388 2.500164,-0.546781 1.41094,-0.694948 2.359385,-1.907462 2.766572,-3.535095 l 0.09591,-0.387092 0.01694,-4.68898 0.01694,-4.689015 -0.674343,-0.02033 c -0.370315,-0.01356 -1.765361,-0.0305 -3.098761,-0.04372 z"
       id="path6947" />
  </g>
</svg>
